<?xml version="1.0" encoding="utf-8"?>
<!-- Generator: Adobe Illustrator 24.3.0, SVG Export Plug-In . SVG Version: 6.00 Build 0)  -->
<svg version="1.1"
	 id="svg8" inkscape:version="1.0 (1.0+r73+1)" sodipodi:docname="google-scholar.svg" xmlns:cc="http://creativecommons.org/ns#" xmlns:dc="http://purl.org/dc/elements/1.1/" xmlns:inkscape="http://www.inkscape.org/namespaces/inkscape" xmlns:rdf="http://www.w3.org/1999/02/22-rdf-syntax-ns#" xmlns:sodipodi="http://sodipodi.sourceforge.net/DTD/sodipodi-0.dtd" xmlns:svg="http://www.w3.org/2000/svg"
	 xmlns="http://www.w3.org/2000/svg" xmlns:xlink="http://www.w3.org/1999/xlink" x="0px" y="0px" viewBox="0 0 384 512"
	 style="enable-background:new 0 0 384 512;" xml:space="preserve">
<sodipodi:namedview  bordercolor="#666666" borderopacity="1.0" id="base" inkscape:current-layer="layer6" inkscape:cx="192" inkscape:cy="256" inkscape:document-rotation="0" inkscape:document-units="px" inkscape:guide-bbox="true" inkscape:pageopacity="0.0" inkscape:pageshadow="2" inkscape:window-height="713" inkscape:window-maximized="1" inkscape:window-width="1315" inkscape:window-x="51" inkscape:window-y="27" inkscape:zoom="0.75" pagecolor="#ffffff" showgrid="true" showguides="true" units="px">
	<inkscape:grid  empspacing="4" id="grid10" type="xygrid"></inkscape:grid>
	
		<sodipodi:guide  id="guide23" inkscape:color="rgb(0,0,255)" inkscape:label="baseline" inkscape:locked="true" orientation="0,1" position="384.00001,64">
		</sodipodi:guide>
</sodipodi:namedview>
<g id="layer6" inkscape:groupmode="layer" inkscape:label="icon">
	<path id="path2" d="M248.4,206.4v-9l7.3-5.1h-79.5l-48,37.3h31.9c-0.1,0.7-0.1,1.3-0.1,2.1c0,6.9,2.7,12.7,8.1,17.2
		c5.4,4.6,12,6.9,19.8,6.9c1.8,0,3.6-0.1,5.4-0.3c-1.1,2.2-1.6,4.2-1.6,6c0,3.3,1.7,6.8,5,10.5c-14.6,0.9-25.3,3.2-32.1,7
		c-3.9,2.2-7.1,4.9-9.4,8.1c-2.4,3.3-3.6,6.8-3.6,10.6c0,3.2,0.8,6.1,2.3,8.7c1.5,2.6,3.6,4.7,6.1,6.3c2.5,1.7,5.4,3,8.6,4.1
		c3.2,1.1,6.5,1.9,9.7,2.3c3.2,0.4,6.4,0.7,9.6,0.7c5,0,10-0.6,15.1-1.7c5-1.2,9.8-2.9,14.2-5.1c4.4-2.3,8-5.3,10.8-9.2
		c2.7-3.9,4.1-8.2,4.1-13.1c0-3.7-0.8-7-2.5-10c-1.7-3-3.7-5.5-6.1-7.4c-2.4-1.9-4.8-3.7-7.3-5.3c-2.4-1.6-4.5-3.2-6.1-4.9
		c-1.7-1.7-2.5-3.3-2.5-5c0-1.6,0.6-3.2,1.9-4.7c1.3-1.5,2.9-3,4.7-4.4c1.8-1.4,3.7-3,5.5-4.7c1.8-1.7,3.4-3.9,4.7-6.6
		c1.3-2.7,1.9-5.8,1.9-9.2c0-4.5-0.9-8.1-2.8-11.1c-0.2-0.3-0.5-0.6-0.7-1l21.2-15.5v5.7c-2.7,0.3-2.5,1.8-2.5,3.5v42.7
		c0,2,1.8,3.6,4,3.6h1.5c2.2,0,4-1.6,4-3.6v-42.7C250.9,208.2,251.2,206.7,248.4,206.4L248.4,206.4z M208.5,280.3
		c0.4,0.2,1.4,0.9,2.9,2c1.5,1.1,2.5,1.9,3.1,2.5c0.5,0.6,1.3,1.4,2.4,2.5c1,1.1,1.8,2.1,2.1,2.9c0.4,0.8,0.7,1.8,1.1,3
		c0.4,1.1,0.6,2.3,0.6,3.5c0,5.7-2.4,9.9-7.3,12.6c-4.9,2.7-10.7,4.1-17.5,4.1c-3.4,0-6.8-0.4-10.1-1.1c-3.3-0.7-6.4-1.8-9.4-3.2
		c-3-1.4-5.4-3.4-7.3-5.9c-1.8-2.5-2.8-5.5-2.8-8.7c0-3.4,1-6.4,3.1-8.9c2.1-2.5,4.8-4.4,8.2-5.8c3.4-1.3,6.8-2.2,10.2-2.8
		c3.5-0.6,7-0.8,10.6-0.8c1.7,0,3,0.1,3.9,0.2c0.2,0.1,1.1,0.7,2.9,1.8C207,279.3,208.1,280,208.5,280.3L208.5,280.3z M207.3,246.9
		c-2.8,2.9-6.6,4.4-11.5,4.4c-4.4,0-8.3-1.6-11.6-4.8c-3.3-3.2-5.7-6.8-7.2-10.8c-1.5-4-2.2-8-2.2-11.8c0-4.5,1.3-8.4,4-11.6
		c2.7-3.2,6.5-4.8,11.5-4.8c4.4,0,8.3,1.7,11.7,5c3.4,3.4,5.8,7.1,7.3,11.3c1.5,4.2,2.2,8.1,2.2,12
		C211.4,240.2,210,243.9,207.3,246.9L207.3,246.9z"/>
</g>
</svg>
