<?xml version="1.0" encoding="utf-8"?>
<!-- Generator: Adobe Illustrator 24.3.0, SVG Export Plug-In . SVG Version: 6.00 Build 0)  -->
<svg version="1.1"
	 id="svg8" inkscape:version="1.0 (1.0+r73+1)" sodipodi:docname="researchgate.svg" xmlns:cc="http://creativecommons.org/ns#" xmlns:dc="http://purl.org/dc/elements/1.1/" xmlns:inkscape="http://www.inkscape.org/namespaces/inkscape" xmlns:rdf="http://www.w3.org/1999/02/22-rdf-syntax-ns#" xmlns:sodipodi="http://sodipodi.sourceforge.net/DTD/sodipodi-0.dtd" xmlns:svg="http://www.w3.org/2000/svg"
	 xmlns="http://www.w3.org/2000/svg" xmlns:xlink="http://www.w3.org/1999/xlink" x="0px" y="0px" viewBox="0 0 384 512"
	 style="enable-background:new 0 0 384 512;" xml:space="preserve">
<sodipodi:namedview  bordercolor="#666666" borderopacity="1.0" id="base" inkscape:current-layer="layer6" inkscape:cx="192" inkscape:cy="256" inkscape:document-rotation="0" inkscape:document-units="px" inkscape:guide-bbox="true" inkscape:pageopacity="0.0" inkscape:pageshadow="2" inkscape:window-height="713" inkscape:window-maximized="1" inkscape:window-width="1315" inkscape:window-x="51" inkscape:window-y="27" inkscape:zoom="0.75" pagecolor="#ffffff" showgrid="true" showguides="true" units="px">
	<inkscape:grid  empspacing="4" id="grid10" type="xygrid"></inkscape:grid>
	
		<sodipodi:guide  id="guide23" inkscape:color="rgb(0,0,255)" inkscape:label="baseline" inkscape:locked="true" orientation="0,1" position="384.00001,64">
		</sodipodi:guide>
</sodipodi:namedview>
<g id="layer6" inkscape:groupmode="layer" inkscape:label="icon">
	<path id="path2" d="M205.2,306.5c-7.3-7.3-17-19-25.1-32.3c13.3-2.9,23.2-14.5,23.2-26c0-17.1-14.3-25-33.1-25
		c-9.7,0-17.5,0.5-24.7,0.5c-6.6,0-13.2,0-17.3-0.1v4.4l6.3,1.1c4.3,0.8,6.8,2.6,6.8,12v60c0,9.4-2.4,11.3-6.8,12l-6.3,1.1v4.4
		c4.4-0.1,12.2-0.4,19.9-0.4c7.4,0,17,0.3,21.1,0.4v-4.4l-8.6-1.1c-4.4-0.6-6.8-2.6-6.8-12v-25.4c4,0.3,7.4,0.3,12.7,0.3
		c10,16.6,19.6,29.1,25,34.9c5,5.5,12.5,9,22.1,9c2.8,0,5.8-0.5,7.6-1.2v-4C215.4,314.6,209.4,310.8,205.2,306.5L205.2,306.5z
		 M165.8,269.1c-5.6,0-8.1-0.1-11.9-0.5v-38.2c3.8-0.3,8.9-0.3,13.3-0.3c13.8,0,22.1,6.7,22.1,18.9
		C189.3,261,180.5,269.1,165.8,269.1z M216.1,230.6c-0.2-0.8-0.3-1.7-0.4-2.8c-0.1-1.1-0.2-2.4-0.3-3.9c-0.1-1.5-0.1-3.3-0.1-5.4
		c0-2.1,0-3.9,0.1-5.4c0.1-1.5,0.1-2.8,0.3-3.9c0.1-1.1,0.3-2,0.4-2.8c0.2-0.8,0.4-1.6,0.6-2.3c1.4-4,3.7-6.9,7-8.9
		c3.2-2,7.2-3,11.9-3c2.4,0,4.6,0.3,6.6,0.8c1.9,0.5,3.7,1.2,5.2,2.2c1.5,0.9,2.8,2,3.9,3.2c1.1,1.2,2,2.5,2.7,3.9
		c0.3,0.4,0.2,0.8-0.2,1.1l-6,2.3c-0.5,0.3-0.9,0.1-1.1-0.4c-1.3-2.3-2.5-3.8-4.4-4.9c-1.9-1.1-3.7-1.6-6.6-1.6
		c-3.2,0-4.6,0.6-6.6,1.9c-2,1.3-3.4,2.9-4.3,5.4c-0.2,0.4-0.3,1-0.5,1.6c-0.1,0.7-0.3,1.5-0.3,2.4c-0.1,0.9-0.1,2.1-0.2,3.5
		c0,1.4-0.1,3-0.1,5c0,1.9,0,3.6,0.1,5c0.1,1.4,0.1,2.5,0.2,3.5c0.1,1,0.2,1.8,0.3,2.4c0.2,0.6,0.3,1.2,0.5,1.6
		c0.8,2.5,2.1,3.8,3.9,4.9c1.8,1.1,3.8,1.9,7,1.9c2.8,0,5.4-0.7,7.1-1.9c1.7-1.1,3-2.6,3.7-4.6c0.3-0.9,0.6-1.9,0.9-3.2
		c0.2-1.3,0.2-2.7,0.2-4.6c0-0.3-0.2-0.5-0.5-0.5h-9.6c-0.5,0-0.8-0.2-0.8-0.7v-5.1c0-0.5,0.3-0.7,0.8-0.7H255
		c0.6,0,0.8,0.2,0.8,0.7v4.3c0,2.3,0,4.4-0.3,6.4c-0.2,2-0.6,3.7-1,4.9c-1.3,3.9-3.5,6.7-6.8,8.8c-3.3,2.1-7.5,3.2-12.1,3.2
		c-4.7,0-8.7-1-11.9-3c-3.2-2-5.6-5-7-8.9C216.5,232.2,216.2,231.4,216.1,230.6L216.1,230.6z"/>
</g>
</svg>
